<svg xmlns="http://www.w3.org/2000/svg" viewBox="0 0 512 512" fill="none">
  <!-- Solid white background with elegant rounded corners -->
  <rect width="512" height="512" rx="96" fill="#FFFFFF" />
  <!-- Filled paths for 'D' and 'B' combined -->
  <path
    fill="#040200"
    fill-rule="evenodd"
    clip-rule="evenodd"
    d="M80 128H176V160H112V352H176V384H80V128ZM208 320V352H176V320H208ZM208 192H240V320H208V192ZM208 192V160H176V192H208ZM272 128H400V160H432V240H400V272H432V352H400V384H272V128ZM304 160H400V240H304V160ZM304 272H400V352H304V272Z"
  />
  <!-- Stroke/Draft grid overlay lines for 'D' and 'B' -->
  <path
    stroke="#040200"
    stroke-opacity="0.2"
    stroke-width="2"
    d="M176 160V128H80V384H176V352M176 160H112V352H176M176 160H208V192M176 160V192H208M176 352H208V320M176 352V320H208M208 320H240V192H208M208 320V192M272 128H400V160H432V240H400V272H432V352H400V384H272V128ZM304 160H400V240H304V160ZM304 272H400V352H304V272Z"
  />
</svg>
